<svg xmlns="http://www.w3.org/2000/svg" viewBox="433 403 15 13.828">
  <defs>
    <style>
      .cls-1 {
        fill: #fff;
      }

      .cls-2 {
        fill: #e0e0e0;
      }
    </style>
  </defs>
  <g id="Group_7" data-name="Group 7" transform="translate(309 344)">
    <path id="Path_3" data-name="Path 3" class="cls-1" d="M10.087,3.763A4.887,4.887,0,0,0,7.5,4.5,4.913,4.913,0,0,0,0,8.676c0,3.511,5.955,7.948,7.149,8.8a.6.6,0,0,0,.7,0C9.045,16.623,15,12.184,15,8.676a4.919,4.919,0,0,0-4.913-4.913Z" transform="translate(124 55.237)"/>
    <path id="Path_2" data-name="Path 2" class="cls-2" d="M10.087,5.477a3.2,3.2,0,0,1,3.2,3.2c0,1.717-2.813,4.684-5.787,6.933-2.972-2.247-5.786-5.214-5.786-6.933A3.2,3.2,0,0,1,6.6,5.955l.9.562.9-.561a3.186,3.186,0,0,1,1.683-.478m0-1.714A4.887,4.887,0,0,0,7.5,4.5,4.913,4.913,0,0,0,0,8.676c0,3.511,5.955,7.948,7.149,8.8a.6.6,0,0,0,.7,0C9.045,16.623,15,12.184,15,8.676a4.919,4.919,0,0,0-4.913-4.913Z" transform="translate(124 55.237)"/>
  </g>
</svg>
