<svg xmlns="http://www.w3.org/2000/svg" width="13.719" height="14.938" viewBox="0 0 13.719 14.938">
  <defs>
    <style>
      .cls-1 {
        fill-rule: evenodd;
      }
    </style>
  </defs>
  <path id="attachment-icon.svg" class="cls-1" d="M323.021,354.913l6.559-6.56,0.024,0.024a0.446,0.446,0,0,1,.625.629l0.022,0.022-0.054.054h0l-6.433,6.433c-1.952,1.952-4.04,1.963-5.826.177s-1.736-3.914.177-5.827l6.721-6.72a2.761,2.761,0,0,1,4.319-.057c1.227,1.227,1.479,2.713-.092,4.284l-6.792,6.792a1.87,1.87,0,0,1-2.91.082,1.829,1.829,0,0,1,.151-2.859l6.918-6.914h0a0.475,0.475,0,0,1,.672.672h0s-0.01,0-.014.006l-6.965,6.964a0.99,0.99,0,0,0-.049,1.491,0.98,0.98,0,0,0,1.474-.054l6.938-6.938a1.9,1.9,0,0,0,.013-2.84,1.866,1.866,0,0,0-2.906-.037L318.7,350.63a2.815,2.815,0,0,0-.089,4.386C320.567,356.971,322.212,355.722,323.021,354.913Z" transform="translate(-316.625 -342.062)"/>
</svg>
