<svg xmlns="http://www.w3.org/2000/svg" width="14.906" height="18.625" viewBox="0 0 14.906 18.625">
  <defs>
    <style>
      .cls-1 {
        fill-rule: evenodd;
      }
    </style>
  </defs>
  <path id="issue-icon.svg" class="cls-1" d="M243.131,358.532l0-18.045h1.606v18.046h-1.608Zm0.807-18.327a0.456,0.456,0,1,1-.8.293A0.79,0.79,0,0,1,243.938,340.205Zm0,18.046a0.456,0.456,0,1,1-.805.294A0.79,0.79,0,0,1,243.933,358.251Zm-7.868-8.125c-2.173-.048-2.618-1.062-6.221-1.062l1.746-4.057-1.746-4.279c3.6,0,4.048,1.014,6.221,1.062,2.1,0.045,2.639-.894,5.786-1.062v8.336C238.7,349.232,238.168,350.171,236.065,350.126Z" transform="translate(-229.844 -340.219)"/>
</svg>
