<svg xmlns="http://www.w3.org/2000/svg" width="13.031" height="16.781" viewBox="0 0 13.031 16.781">
  <defs>
    <style>
      .cls-1 {
        fill-rule: evenodd;
      }
    </style>
  </defs>
  <path id="list-icon.svg" class="cls-1" d="M160.259,343.188H148.772a0.772,0.772,0,0,1-.772-0.772V342.3a0.772,0.772,0,0,1,.772-0.772h11.487a0.772,0.772,0,0,1,.772.772v0.113A0.772,0.772,0,0,1,160.259,343.188Zm-11.487,2.187h8.519a0.772,0.772,0,0,1,.771.772v0.112a0.771,0.771,0,0,1-.771.772h-8.519a0.772,0.772,0,0,1-.772-0.772v-0.112A0.772,0.772,0,0,1,148.772,345.375Zm-0.014,3.781h10.828a0.759,0.759,0,0,1,.758.758v0.109a0.758,0.758,0,0,1-.758.758H148.758a0.758,0.758,0,0,1-.758-0.758v-0.109A0.758,0.758,0,0,1,148.758,349.156Zm0.014,3.75h6.144a0.772,0.772,0,0,1,.772.772v0.081a0.772,0.772,0,0,1-.772.772h-6.144a0.772,0.772,0,0,1-.772-0.772v-0.081A0.772,0.772,0,0,1,148.772,352.906Zm0,3.781h10.8a0.772,0.772,0,0,1,.772.772v0.082a0.772,0.772,0,0,1-.772.772h-10.8a0.772,0.772,0,0,1-.772-0.772v-0.082A0.772,0.772,0,0,1,148.772,356.687Z" transform="translate(-148 -341.531)"/>
</svg>
